<?xml version="1.0" standalone="no"?>
<!DOCTYPE svg PUBLIC "-//W3C//DTD SVG 20010904//EN"
 "http://www.w3.org/TR/2001/REC-SVG-20010904/DTD/svg10.dtd">
<svg version="1.0" xmlns="http://www.w3.org/2000/svg"
 width="400.000000pt" height="298.000000pt" viewBox="0 0 400.000000 298.000000"
 preserveAspectRatio="xMidYMid meet">
<metadata>
Created by potrace 1.16, written by Peter Selinger 2001-2019
</metadata>
<g transform="translate(0.000000,298.000000) scale(0.100000,-0.100000)"
fill="#000000" stroke="none">
<path d="M35 2945 l-35 -36 0 -1419 0 -1419 35 -36 36 -35 1929 0 1929 0 36
35 35 36 0 1419 0 1419 -35 36 -36 35 -1929 0 -1929 0 -36 -35z m3815 -45 c0
-5 14 -10 30 -10 27 0 30 -3 30 -30 0 -16 5 -30 10 -30 6 0 10 -73 10 -200 l0
-200 -1930 0 -1930 0 0 200 c0 127 4 200 10 200 6 0 10 14 10 30 0 27 3 30 30
30 17 0 30 5 30 10 0 7 623 10 1850 10 1227 0 1850 -3 1850 -10z m80 -1620 l0
-1050 -1930 0 -1930 0 0 1050 0 1050 1930 0 1930 0 0 -1050z m-20 -1156 c0 -3
-6 -12 -14 -20 -22 -21 -3770 -21 -3792 0 -8 8 -14 17 -14 20 0 3 859 6 1910
6 1051 0 1910 -3 1910 -6z"/>
<path d="M290 2800 c0 -5 -7 -10 -15 -10 -25 0 -65 -46 -65 -75 0 -14 -4 -25
-10 -25 -5 0 -10 -13 -10 -30 0 -16 5 -30 10 -30 6 0 10 -12 10 -26 0 -29 21
-54 44 -54 9 0 16 -4 16 -10 0 -6 32 -10 75 -10 67 0 79 3 100 25 14 13 25 36
25 50 0 14 5 25 10 25 6 0 10 14 10 30 0 17 -4 30 -10 30 -5 0 -10 11 -10 25
0 29 -40 75 -65 75 -8 0 -15 5 -15 10 0 6 -22 10 -50 10 -27 0 -50 -4 -50 -10z"/>
<path d="M610 2800 c0 -5 -7 -10 -15 -10 -20 0 -65 -45 -65 -65 0 -8 -4 -15
-10 -15 -5 0 -10 -22 -10 -50 0 -27 5 -50 10 -50 6 0 10 -7 10 -15 0 -9 11
-27 25 -40 21 -22 33 -25 100 -25 43 0 75 4 75 10 0 6 9 10 20 10 13 0 20 7
20 20 0 11 5 20 10 20 6 0 10 32 10 75 0 67 -3 79 -25 100 -13 14 -31 25 -40
25 -8 0 -15 5 -15 10 0 6 -22 10 -50 10 -27 0 -50 -4 -50 -10z"/>
<path d="M930 2800 c0 -5 -7 -10 -15 -10 -9 0 -31 -16 -50 -35 -32 -31 -35
-40 -35 -90 0 -30 5 -55 10 -55 6 0 10 -7 10 -15 0 -9 11 -27 25 -40 21 -22
33 -25 95 -25 67 0 72 2 105 35 33 32 35 38 35 100 0 37 -4 65 -10 65 -5 0
-10 7 -10 16 0 20 -24 44 -44 44 -9 0 -16 5 -16 10 0 6 -22 10 -50 10 -27 0
-50 -4 -50 -10z"/>
<path d="M2193 1965 c-13 -13 -23 -31 -23 -40 0 -8 -4 -15 -10 -15 -5 0 -10
-9 -10 -20 0 -11 -4 -20 -10 -20 -5 0 -10 -9 -10 -20 0 -11 -4 -20 -10 -20 -5
0 -10 -9 -10 -20 0 -11 -4 -20 -10 -20 -5 0 -10 -9 -10 -20 0 -11 -4 -20 -10
-20 -5 0 -10 -9 -10 -20 0 -11 -4 -20 -10 -20 -5 0 -10 -9 -10 -20 0 -11 -4
-20 -10 -20 -5 0 -10 -9 -10 -20 0 -11 -4 -20 -10 -20 -5 0 -10 -9 -10 -20 0
-11 -4 -20 -10 -20 -5 0 -10 -9 -10 -20 0 -11 -4 -20 -10 -20 -5 0 -10 -9 -10
-20 0 -11 -4 -20 -10 -20 -5 0 -10 -9 -10 -20 0 -11 -4 -20 -10 -20 -5 0 -10
-9 -10 -20 0 -11 -4 -20 -10 -20 -5 0 -10 -9 -10 -20 0 -11 -4 -20 -10 -20 -5
0 -10 -9 -10 -20 0 -11 -4 -20 -10 -20 -5 0 -10 -9 -10 -20 0 -11 -4 -20 -10
-20 -5 0 -10 -13 -10 -30 0 -16 -4 -30 -10 -30 -5 0 -10 -9 -10 -20 0 -11 -4
-20 -10 -20 -5 0 -10 -9 -10 -20 0 -11 -4 -20 -10 -20 -5 0 -10 -9 -10 -20 0
-11 -4 -20 -10 -20 -5 0 -10 -9 -10 -20 0 -11 -4 -20 -10 -20 -5 0 -10 -9 -10
-20 0 -11 -4 -20 -10 -20 -5 0 -10 -9 -10 -20 0 -11 -4 -20 -10 -20 -5 0 -10
-9 -10 -20 0 -11 -4 -20 -10 -20 -5 0 -10 -9 -10 -20 0 -11 -4 -20 -10 -20 -5
0 -10 -9 -10 -20 0 -11 -4 -20 -10 -20 -5 0 -10 -9 -10 -20 0 -11 -4 -20 -10
-20 -5 0 -10 -9 -10 -20 0 -11 -4 -20 -10 -20 -5 0 -10 -9 -10 -20 0 -11 -4
-20 -10 -20 -5 0 -10 -9 -10 -20 0 -11 -4 -20 -10 -20 -5 0 -10 -20 -10 -45 0
-35 6 -52 25 -70 13 -14 31 -25 40 -25 8 0 15 -4 15 -10 0 -5 9 -10 20 -10 11
0 20 -4 20 -10 0 -5 9 -10 20 -10 11 0 20 -4 20 -10 0 -5 18 -10 40 -10 22 0
40 5 40 10 0 6 9 10 20 10 13 0 20 7 20 20 0 11 5 20 10 20 6 0 10 9 10 20 0
11 5 20 10 20 6 0 10 9 10 20 0 11 5 20 10 20 6 0 10 9 10 20 0 11 5 20 10 20
6 0 10 9 10 20 0 11 5 20 10 20 6 0 10 9 10 20 0 11 5 20 10 20 6 0 10 9 10
20 0 11 5 20 10 20 6 0 10 9 10 20 0 11 5 20 10 20 6 0 10 9 10 20 0 11 5 20
10 20 6 0 10 9 10 20 0 11 5 20 10 20 6 0 10 9 10 20 0 11 5 20 10 20 6 0 10
9 10 20 0 11 5 20 10 20 6 0 10 9 10 20 0 11 5 20 10 20 6 0 10 9 10 20 0 11
5 20 10 20 6 0 10 9 10 20 0 11 5 20 10 20 6 0 10 9 10 20 0 11 5 20 10 20 6
0 10 9 10 20 0 11 5 20 10 20 6 0 10 14 10 30 0 17 5 30 10 30 6 0 10 9 10 20
0 11 5 20 10 20 6 0 10 9 10 20 0 11 5 20 10 20 6 0 10 9 10 20 0 11 5 20 10
20 6 0 10 9 10 20 0 11 5 20 10 20 6 0 10 9 10 20 0 11 5 20 10 20 6 0 10 9
10 20 0 11 5 20 10 20 6 0 10 9 10 20 0 11 5 20 10 20 6 0 10 9 10 20 0 11 5
20 10 20 6 0 10 9 10 20 0 11 5 20 10 20 6 0 10 9 10 20 0 11 5 20 10 20 6 0
10 9 10 20 0 11 5 20 10 20 6 0 10 9 10 20 0 11 5 20 10 20 6 0 10 28 10 65 0
57 -3 69 -25 90 -13 14 -31 25 -40 25 -8 0 -15 5 -15 10 0 6 -13 10 -30 10
-16 0 -30 5 -30 10 0 6 -21 10 -47 9 -37 0 -53 -6 -70 -24z m97 -85 c0 -5 7
-10 16 -10 8 0 22 -6 30 -14 16 -17 19 -46 4 -46 -5 0 -10 -9 -10 -20 0 -11
-4 -20 -10 -20 -5 0 -10 -9 -10 -20 0 -11 -4 -20 -10 -20 -5 0 -10 -9 -10 -20
0 -11 -4 -20 -10 -20 -5 0 -10 -9 -10 -20 0 -11 -4 -20 -10 -20 -5 0 -10 -9
-10 -20 0 -11 -4 -20 -10 -20 -5 0 -10 -9 -10 -20 0 -11 -4 -20 -10 -20 -5 0
-10 -9 -10 -20 0 -11 -4 -20 -10 -20 -5 0 -10 -13 -10 -30 0 -16 -4 -30 -10
-30 -5 0 -10 -9 -10 -20 0 -11 -4 -20 -10 -20 -5 0 -10 -9 -10 -20 0 -11 -4
-20 -10 -20 -5 0 -10 -9 -10 -20 0 -11 -4 -20 -10 -20 -5 0 -10 -9 -10 -20 0
-11 -4 -20 -10 -20 -5 0 -10 -9 -10 -20 0 -11 -4 -20 -10 -20 -5 0 -10 -9 -10
-20 0 -11 -4 -20 -10 -20 -5 0 -10 -9 -10 -20 0 -11 -4 -20 -10 -20 -5 0 -10
-9 -10 -20 0 -11 -4 -20 -10 -20 -5 0 -10 -9 -10 -20 0 -11 -4 -20 -10 -20 -5
0 -10 -9 -10 -20 0 -11 -4 -20 -10 -20 -5 0 -10 -9 -10 -20 0 -11 -4 -20 -10
-20 -5 0 -10 -9 -10 -20 0 -11 -4 -20 -10 -20 -5 0 -10 -9 -10 -20 0 -11 -4
-20 -10 -20 -5 0 -10 -9 -10 -20 0 -11 -4 -20 -10 -20 -5 0 -10 -9 -10 -20 0
-11 -4 -20 -10 -20 -5 0 -10 -9 -10 -20 0 -11 -4 -20 -10 -20 -5 0 -10 -9 -10
-20 0 -11 -4 -20 -10 -20 -5 0 -10 -9 -10 -20 0 -11 -4 -20 -10 -20 -5 0 -10
-9 -10 -20 0 -11 -4 -20 -10 -20 -5 0 -10 -12 -10 -26 0 -29 -31 -67 -38 -46
-2 6 -10 12 -19 12 -8 0 -21 6 -29 14 -16 17 -19 66 -4 66 6 0 10 9 10 20 0
11 5 20 10 20 6 0 10 9 10 20 0 11 5 20 10 20 6 0 10 9 10 20 0 11 5 20 10 20
6 0 10 9 10 20 0 11 5 20 10 20 6 0 10 9 10 20 0 11 5 20 10 20 6 0 10 9 10
20 0 11 5 20 10 20 6 0 10 14 10 30 0 17 5 30 10 30 6 0 10 9 10 20 0 11 5 20
10 20 6 0 10 9 10 20 0 11 5 20 10 20 6 0 10 9 10 20 0 11 5 20 10 20 6 0 10
9 10 20 0 11 5 20 10 20 6 0 10 9 10 20 0 11 5 20 10 20 6 0 10 9 10 20 0 11
5 20 10 20 6 0 10 9 10 20 0 11 5 20 10 20 6 0 10 9 10 20 0 11 5 20 10 20 6
0 10 9 10 20 0 11 5 20 10 20 6 0 10 9 10 20 0 11 5 20 10 20 6 0 10 9 10 20
0 11 5 20 10 20 6 0 10 9 10 20 0 11 5 20 10 20 6 0 10 9 10 20 0 11 5 20 10
20 6 0 10 9 10 20 0 11 5 20 10 20 6 0 10 9 10 20 0 11 5 20 10 20 6 0 10 9
10 20 0 11 5 20 10 20 6 0 10 9 10 20 0 11 5 20 10 20 6 0 10 9 10 20 0 11 5
20 10 20 6 0 10 9 10 20 0 11 5 20 10 20 6 0 10 14 10 30 0 17 5 30 10 30 6 0
10 9 10 20 0 13 7 20 20 20 11 0 20 -4 20 -10z"/>
<path d="M983 1554 l-273 -274 0 -50 0 -50 265 -265 c146 -146 272 -265 280
-265 8 0 15 -4 15 -10 0 -5 9 -10 20 -10 11 0 20 5 20 10 0 6 9 10 20 10 11 0
20 5 20 10 0 6 7 10 15 10 9 0 36 20 60 45 41 41 45 49 45 95 l0 50 -180 180
c-99 99 -180 184 -180 190 0 6 81 91 180 190 l180 180 0 50 c0 49 -2 53 -65
115 -60 60 -68 65 -107 64 -43 -1 -46 -3 -315 -275z m342 131 c14 -13 25 -29
25 -35 0 -6 -85 -96 -190 -200 -163 -163 -190 -194 -190 -220 0 -26 27 -57
190 -220 105 -104 190 -194 190 -200 0 -14 -46 -60 -60 -60 -13 0 -480 467
-480 480 0 15 462 478 478 479 7 1 24 -10 37 -24z"/>
<path d="M2593 1764 c-60 -61 -63 -66 -63 -114 l0 -50 180 -180 c99 -99 180
-184 180 -190 0 -6 -81 -91 -180 -190 l-180 -180 0 -50 c0 -46 4 -54 45 -95
24 -25 51 -45 60 -45 8 0 15 -4 15 -10 0 -5 9 -10 20 -10 11 0 20 -4 20 -10 0
-5 9 -10 20 -10 11 0 20 5 20 10 0 6 7 10 15 10 8 0 134 119 280 265 l265 265
0 50 0 50 -275 275 -275 275 -42 -1 c-39 0 -49 -6 -105 -65z m362 -289 c129
-129 235 -239 235 -245 0 -13 -467 -480 -480 -480 -14 0 -60 46 -60 60 0 6 86
96 190 200 163 163 190 194 190 220 0 26 -27 57 -190 220 -104 104 -190 194
-190 200 0 15 42 59 58 59 6 1 118 -105 247 -234z"/>
</g>
</svg>
